<?xml version="1.0" encoding="UTF-8" standalone="no"?>
<svg xmlns:dc="http://purl.org/dc/elements/1.1/" xmlns:cc="http://creativecommons.org/ns#" xmlns:rdf="http://www.w3.org/1999/02/22-rdf-syntax-ns#" xmlns:svg="http://www.w3.org/2000/svg" xmlns="http://www.w3.org/2000/svg" xmlns:xlink="http://www.w3.org/1999/xlink" id="svg23" version="1.1" viewBox="0 0 319.1 269.1" height="25" width="25">
	<metadata id="metadata27">
		<RDF>
			<Work rdf:about="">
				<format>
					image/svg+xml
				</format>
				<type rdf:resource="http://purl.org/dc/dcmitype/StillImage" />
			</Work>
		</RDF>
	</metadata>
	<defs id="defs9">
		<g id="smallcross">
			<clipPath id="vclip">
				<path id="path2" d="m -109,104 a 104,104 0 0 0 0,-208 h 218 a 104,104 0 0 0 0,208 z" />
			</clipPath>
			<path clip-path="url(#vclip)" d="M -55,74 A 55,55 0 0 1 55,74 V -74 a 55,55 0 0 1 -110,0 z" id="varm" />
			<use height="100%" width="100%" y="0" x="0" id="use6" transform="rotate(90)" xlink:href="#varm" />
		</g>
	</defs>
	<rect y="34.549999" x="9.5500002" id="rect11" style="fill:#ffffff" height="200" width="300" />
	<path id="path13" style="fill:#ff0000" d="m 139.55,34.55 v 80 h -130 v 40 h 130 v 80 h 40 v -80 h 130 v -40 h -130 v -80 z" />
	<use height="100%" width="100%" y="0" x="0" style="fill:#ff0000" id="use15" transform="translate(74,74)" xlink:href="#smallcross" />
	<use height="100%" width="100%" y="0" x="0" style="fill:#ff0000" id="use17" transform="translate(245.1,195.1)" xlink:href="#smallcross" />
	<use height="100%" width="100%" y="0" x="0" style="fill:#ff0000" id="use19" transform="translate(245.1,74)" xlink:href="#smallcross" />
	<use height="100%" width="100%" y="0" x="0" style="fill:#ff0000" id="use21" transform="translate(74,195.1)" xlink:href="#smallcross" />
</svg>
